<svg width="21" height="21" viewBox="0 0 21 21" fill="none" xmlns="http://www.w3.org/2000/svg">
<path d="M17.1826 18.1807C15.4465 18.1807 13.7312 17.8023 12.0368 17.0457C10.3423 16.289 8.80067 15.2159 7.41178 13.8265C6.0229 12.4371 4.95012 10.8954 4.19345 9.2015C3.43678 7.50761 3.05817 5.79233 3.05762 4.05566C3.05762 3.80566 3.14095 3.59733 3.30762 3.43066C3.47428 3.264 3.68262 3.18066 3.93262 3.18066H7.30762C7.50206 3.18066 7.67567 3.24678 7.82845 3.379C7.98123 3.51122 8.07151 3.66733 8.09928 3.84733L8.64095 6.764C8.66873 6.98622 8.66178 7.17372 8.62012 7.3265C8.57845 7.47928 8.50206 7.61122 8.39095 7.72233L6.37012 9.764C6.64789 10.2779 6.97762 10.7743 7.35928 11.2532C7.74095 11.7321 8.16123 12.194 8.62012 12.639C9.05067 13.0696 9.50206 13.469 9.97428 13.8373C10.4465 14.2057 10.9465 14.5423 11.4743 14.8473L13.4326 12.889C13.5576 12.764 13.721 12.6704 13.9226 12.6082C14.1243 12.5459 14.3221 12.5284 14.516 12.5557L17.391 13.139C17.5854 13.1946 17.7451 13.2954 17.8701 13.4415C17.9951 13.5876 18.0576 13.7507 18.0576 13.9307V17.3057C18.0576 17.5557 17.9743 17.764 17.8076 17.9307C17.641 18.0973 17.4326 18.1807 17.1826 18.1807Z" fill="#0034BB"/>
</svg>
