<?xml version="1.0" encoding="UTF-8"?>
<svg xmlns="http://www.w3.org/2000/svg" xmlns:xlink="http://www.w3.org/1999/xlink" width="32px" height="32px" viewBox="0 0 32 32" version="1.1">
<g id="surface1">
<path style=" stroke:none;fill-rule:nonzero;fill:rgb(92.941177%,11.372549%,14.117648%);fill-opacity:1;" d="M 17.730469 0.0390625 C 17.625 0.0625 17.515625 0.0742188 17.410156 0.0742188 C 16.558594 0.183594 15.726562 0.390625 14.925781 0.695312 L 14.617188 0.824219 C 14.171875 1.003906 13.734375 1.210938 13.316406 1.445312 C 13.242188 1.492188 13.164062 1.527344 13.082031 1.550781 C 13.019531 1.566406 12.964844 1.597656 12.964844 1.617188 C 12.964844 1.632812 12.929688 1.660156 12.890625 1.675781 C 12.816406 1.707031 12.742188 1.746094 12.675781 1.792969 C 12.601562 1.839844 12.523438 1.882812 12.441406 1.921875 C 12.355469 1.964844 12.269531 2.015625 12.195312 2.074219 C 12.144531 2.121094 12.085938 2.15625 12.023438 2.1875 C 11.347656 2.597656 10.703125 3.0625 10.097656 3.570312 C 9.761719 3.871094 9.449219 4.203125 9.167969 4.554688 C 9.144531 4.605469 9.113281 4.648438 9.074219 4.6875 C 8.832031 5.007812 8.613281 5.34375 8.421875 5.695312 C 8.375 5.804688 8.277344 5.996094 8.214844 6.128906 C 7.996094 6.585938 7.898438 7.09375 7.933594 7.601562 C 7.917969 8.058594 8.109375 8.5 8.453125 8.808594 C 8.84375 9.199219 9.375 9.414062 9.925781 9.40625 C 10.34375 9.433594 10.765625 9.386719 11.167969 9.265625 C 11.308594 9.226562 11.503906 9.179688 11.597656 9.152344 C 11.683594 9.132812 11.765625 9.105469 11.839844 9.066406 C 11.941406 9.015625 12.511719 8.761719 12.539062 8.761719 C 13.1875 8.421875 13.816406 8.042969 14.414062 7.625 C 14.980469 7.25 15.480469 6.921875 15.527344 6.898438 C 15.570312 6.875 15.835938 6.714844 16.121094 6.542969 C 16.410156 6.375 16.761719 6.175781 16.902344 6.101562 L 17.367188 5.859375 C 17.480469 5.808594 17.683594 5.710938 17.832031 5.660156 C 17.976562 5.605469 18.160156 5.527344 18.230469 5.496094 C 18.300781 5.464844 18.410156 5.417969 18.472656 5.390625 C 18.777344 5.296875 19.09375 5.238281 19.414062 5.222656 C 20.164062 5.125 20.875 5.574219 21.105469 6.285156 C 21.191406 6.5625 21.21875 6.851562 21.191406 7.140625 C 21.21875 7.617188 21.144531 8.09375 20.972656 8.535156 L 20.859375 8.792969 C 20.539062 9.492188 20.136719 10.152344 19.660156 10.757812 C 18.984375 11.601562 18.226562 12.378906 17.402344 13.082031 L 16.804688 13.574219 C 16.617188 13.726562 16.402344 13.878906 16.164062 14.039062 C 16.066406 14.097656 15.902344 14.203125 15.808594 14.273438 C 15.355469 14.554688 14.882812 14.800781 14.394531 15.019531 L 14.035156 15.175781 C 13.960938 15.214844 13.882812 15.242188 13.800781 15.253906 C 13.726562 15.257812 13.652344 15.277344 13.578125 15.300781 C 13.449219 15.351562 13.300781 15.335938 13.1875 15.261719 C 13.070312 15.183594 13 15.054688 13 14.917969 C 13 14.558594 13.171875 14.328125 14.257812 13.257812 C 15.433594 12.101562 15.558594 11.929688 15.558594 11.492188 C 15.558594 11.058594 15.34375 10.734375 14.855469 10.488281 C 14.652344 10.382812 14.421875 10.339844 14.191406 10.367188 C 13.839844 10.347656 13.492188 10.4375 13.195312 10.625 C 13.125 10.667969 13.011719 10.726562 12.953125 10.757812 C 12.90625 10.78125 12.863281 10.804688 12.820312 10.835938 C 12.820312 10.835938 12.71875 10.914062 12.621094 10.988281 C 12.296875 11.257812 12 11.554688 11.742188 11.882812 C 11.535156 12.171875 11.351562 12.472656 11.199219 12.789062 C 10.9375 13.316406 10.785156 13.890625 10.75 14.476562 C 10.75 15.421875 11.246094 16.175781 12.011719 16.390625 C 12.503906 16.449219 13.003906 16.449219 13.5 16.390625 C 13.910156 16.296875 14.308594 16.175781 14.699219 16.027344 C 14.730469 16.003906 14.769531 15.988281 14.808594 15.988281 C 15.457031 15.71875 16.085938 15.402344 16.683594 15.039062 C 16.785156 14.96875 16.902344 14.894531 16.945312 14.871094 C 16.988281 14.84375 17.207031 14.722656 17.410156 14.589844 C 17.613281 14.460938 17.808594 14.332031 17.820312 14.332031 C 17.925781 14.246094 18.035156 14.167969 18.152344 14.09375 L 18.59375 13.789062 C 18.667969 13.734375 18.875 13.578125 19.058594 13.433594 C 20.070312 12.65625 20.996094 11.773438 21.816406 10.796875 C 21.910156 10.679688 22 10.570312 22.011719 10.554688 C 22.207031 10.308594 22.390625 10.046875 22.558594 9.78125 C 22.671875 9.609375 22.773438 9.429688 22.871094 9.246094 C 22.953125 9.089844 23.070312 8.875 23.128906 8.761719 C 23.191406 8.652344 23.308594 8.371094 23.40625 8.128906 C 23.503906 7.886719 23.59375 7.648438 23.609375 7.609375 C 23.792969 7.0625 23.925781 6.496094 24.007812 5.925781 C 24.09375 5.152344 24.039062 4.375 23.847656 3.621094 C 23.78125 3.402344 23.695312 3.191406 23.589844 2.988281 C 23.242188 2.234375 22.703125 1.585938 22.027344 1.101562 C 21.933594 1.042969 21.847656 0.980469 21.765625 0.910156 C 21.316406 0.636719 20.835938 0.421875 20.332031 0.269531 C 20.058594 0.191406 19.78125 0.128906 19.5 0.0820312 C 19.214844 0.0390625 18.703125 0.0117188 18.300781 0.0117188 L 18.09375 0.0117188 C 17.972656 0.0078125 17.851562 0.015625 17.730469 0.0390625 Z M 9.492188 23.96875 C 9.347656 24.003906 9.199219 24.03125 9.050781 24.050781 C 8.882812 24.070312 8.574219 24.113281 8.363281 24.144531 C 8.226562 24.160156 8.085938 24.1875 7.953125 24.226562 C 7.914062 24.257812 7.910156 31.71875 7.953125 31.773438 C 8.261719 31.8125 8.570312 31.824219 8.878906 31.8125 C 9.78125 31.8125 9.785156 31.8125 9.808594 31.710938 C 9.808594 31.65625 9.824219 29.886719 9.808594 27.78125 C 9.808594 23.980469 9.808594 23.945312 9.707031 23.9375 C 9.632812 23.933594 9.558594 23.945312 9.488281 23.96875 Z M 8.410156 20.804688 C 8.171875 20.894531 7.964844 21.058594 7.824219 21.269531 C 7.683594 21.484375 7.679688 21.503906 7.679688 21.949219 L 7.679688 22.414062 L 7.847656 22.644531 C 7.992188 22.867188 8.214844 23.035156 8.472656 23.109375 C 8.851562 23.238281 9.273438 23.175781 9.597656 22.941406 C 10.070312 22.644531 10.234375 21.878906 9.949219 21.320312 C 9.851562 21.125 9.691406 20.964844 9.492188 20.867188 C 9.152344 20.707031 8.765625 20.683594 8.410156 20.804688 Z M 24.582031 25.28125 C 24.765625 25.328125 25.152344 25.640625 25.152344 25.738281 C 25.167969 25.796875 25.1875 25.855469 25.222656 25.90625 C 25.324219 26.105469 25.402344 26.753906 25.332031 26.835938 C 25.261719 26.921875 25.113281 26.902344 24.222656 26.902344 L 23.175781 26.902344 L 23.152344 26.792969 C 23.125 26.421875 23.21875 26.054688 23.410156 25.738281 C 23.554688 25.511719 23.777344 25.347656 24.035156 25.273438 C 24.132812 25.238281 24.238281 25.21875 24.34375 25.214844 C 24.371094 25.214844 24.476562 25.257812 24.578125 25.28125 Z M 23.628906 23.886719 C 23.523438 23.898438 23.421875 23.925781 23.324219 23.96875 C 23.296875 23.996094 23.257812 24.011719 23.21875 24.011719 C 23.097656 24.042969 22.980469 24.089844 22.871094 24.152344 C 22.4375 24.398438 22.066406 24.742188 21.785156 25.152344 C 21.597656 25.449219 21.445312 25.769531 21.332031 26.101562 C 21.316406 26.175781 21.292969 26.246094 21.265625 26.320312 C 21.25 26.367188 21.195312 26.554688 21.152344 26.738281 C 21.035156 27.542969 21.035156 28.363281 21.152344 29.167969 C 21.238281 29.527344 21.367188 29.875 21.542969 30.199219 C 21.582031 30.414062 22.101562 31.078125 22.476562 31.375 C 22.722656 31.546875 22.992188 31.683594 23.277344 31.785156 C 23.679688 31.902344 24.097656 31.972656 24.519531 31.996094 C 25.144531 31.996094 26.277344 31.738281 26.652344 31.480469 C 26.734375 31.425781 26.820312 31.382812 26.910156 31.351562 C 27.082031 31.289062 27.238281 31.191406 27.371094 31.070312 C 27.253906 30.691406 27.078125 30.335938 26.847656 30.011719 C 26.785156 30.027344 26.726562 30.058594 26.675781 30.101562 C 26.628906 30.144531 26.570312 30.171875 26.503906 30.1875 C 26.453125 30.195312 26.402344 30.21875 26.359375 30.25 C 26.191406 30.328125 26.015625 30.394531 25.839844 30.453125 C 25.507812 30.578125 25.152344 30.628906 24.796875 30.597656 C 24.25 30.597656 24.15625 30.597656 23.980469 30.507812 C 23.363281 30.214844 23.007812 29.476562 23.007812 28.476562 C 23 28.34375 23 28.207031 23.007812 28.074219 C 23.007812 28.074219 23.992188 28.054688 25.183594 28.042969 L 27.347656 28.019531 L 27.347656 27.578125 C 27.320312 26.722656 27.085938 25.5625 26.890625 25.300781 C 26.871094 25.273438 26.8125 25.167969 26.753906 25.042969 C 26.460938 24.53125 25.984375 24.148438 25.417969 23.972656 C 24.824219 23.816406 24.203125 23.78125 23.59375 23.871094 Z M 14.019531 23.886719 C 13.160156 24.082031 12.371094 24.503906 11.730469 25.105469 L 11.546875 25.273438 L 11.546875 31.746094 C 11.546875 31.816406 11.613281 31.820312 12.511719 31.808594 L 13.46875 31.808594 L 13.480469 28.757812 L 13.480469 25.707031 L 13.652344 25.574219 C 13.8125 25.4375 14 25.335938 14.203125 25.28125 C 14.578125 25.164062 14.972656 25.117188 15.363281 25.152344 C 15.488281 25.167969 15.609375 25.171875 15.734375 25.164062 C 15.816406 25.066406 15.878906 24.953125 15.917969 24.832031 C 15.980469 24.65625 16.089844 24.425781 16.140625 24.3125 C 16.285156 24.039062 16.273438 23.96875 16.078125 23.925781 L 15.699219 23.835938 C 15.144531 23.761719 14.582031 23.777344 14.035156 23.871094 Z M 4.300781 28 C 4.34375 28.394531 4.355469 28.789062 4.34375 29.1875 C 4.34375 30.429688 4.363281 30.351562 4.035156 30.523438 C 3.8125 30.605469 3.578125 30.632812 3.347656 30.605469 L 2.808594 30.605469 L 2.589844 30.457031 C 2.472656 30.378906 2.367188 30.285156 2.28125 30.171875 C 1.953125 29.632812 1.96875 28.953125 2.320312 28.425781 C 2.480469 28.261719 2.671875 28.128906 2.882812 28.035156 C 2.925781 28.035156 2.96875 28.019531 3 27.992188 C 3.0625 27.929688 3.261719 27.910156 3.78125 27.917969 C 4.152344 27.917969 4.265625 27.933594 4.300781 27.988281 Z M 2.996094 23.777344 C 2.53125 23.839844 2.070312 23.949219 1.628906 24.101562 C 1.578125 24.121094 1.488281 24.152344 1.425781 24.171875 C 1.128906 24.273438 0.847656 24.414062 0.589844 24.585938 C 0.609375 24.664062 0.636719 24.742188 0.671875 24.816406 C 0.789062 25.113281 0.929688 25.402344 1.097656 25.679688 C 1.132812 25.671875 1.167969 25.65625 1.199219 25.640625 C 1.429688 25.523438 1.667969 25.429688 1.914062 25.351562 C 2.046875 25.3125 2.207031 25.257812 2.269531 25.234375 C 2.664062 25.136719 3.074219 25.109375 3.480469 25.152344 C 4.078125 25.25 4.300781 25.527344 4.335938 26.230469 C 4.355469 26.621094 4.355469 26.632812 4.253906 26.65625 C 3.953125 26.683594 3.652344 26.695312 3.347656 26.6875 C 2.308594 26.6875 1.976562 26.746094 1.296875 27.078125 C 0.695312 27.382812 0.25 27.921875 0.0742188 28.570312 C -0.03125 29.035156 -0.0234375 29.515625 0.0976562 29.976562 C 0.496094 31.167969 1.441406 31.863281 2.757812 31.933594 C 3.910156 32.015625 5.054688 31.6875 5.988281 31.007812 L 6.277344 30.777344 L 6.289062 28.453125 C 6.300781 25.765625 6.289062 25.671875 5.972656 25.015625 C 5.746094 24.636719 5.417969 24.324219 5.03125 24.113281 C 4.890625 24.046875 4.734375 23.980469 4.683594 23.960938 C 4.140625 23.792969 3.566406 23.730469 2.996094 23.777344 Z M 18.308594 21.796875 C 17.324219 21.941406 17.003906 22.003906 16.957031 22.054688 C 16.910156 22.109375 16.925781 23.484375 16.925781 26.160156 C 16.949219 29.894531 16.957031 30.230469 17.027344 30.410156 C 17.121094 30.710938 17.285156 30.988281 17.511719 31.207031 C 17.972656 31.667969 18.550781 31.855469 19.535156 31.855469 C 20.074219 31.855469 20.152344 31.855469 20.1875 31.777344 C 20.238281 31.433594 20.25 31.085938 20.21875 30.742188 C 20.191406 30.632812 20.175781 30.628906 19.839844 30.601562 C 19.5 30.617188 19.179688 30.441406 19.011719 30.148438 L 18.902344 29.949219 L 18.886719 27.679688 C 18.886719 25.988281 18.886719 25.390625 18.925781 25.355469 C 18.96875 25.320312 19.117188 25.296875 19.589844 25.296875 C 20.316406 25.296875 20.253906 25.367188 20.238281 24.519531 L 20.238281 23.949219 L 19.621094 23.929688 C 19.394531 23.925781 19.171875 23.90625 18.949219 23.871094 C 18.902344 23.847656 18.890625 23.578125 18.890625 22.785156 L 18.890625 21.730469 L 18.792969 21.730469 C 18.738281 21.730469 18.535156 21.761719 18.316406 21.792969 Z M 30.546875 21.710938 C 30.546875 21.710938 30.332031 21.757812 30.089844 21.796875 C 29.847656 21.835938 29.449219 21.898438 29.207031 21.941406 L 28.761719 22.015625 L 28.761719 26.050781 C 28.761719 30.441406 28.761719 30.242188 29.023438 30.789062 C 29.121094 30.988281 29.257812 31.164062 29.425781 31.304688 C 29.894531 31.734375 30.332031 31.863281 31.261719 31.867188 C 32.058594 31.867188 32.027344 31.898438 32.011719 31.171875 L 32.011719 30.65625 L 31.667969 30.625 C 31.066406 30.574219 30.773438 30.332031 30.707031 29.832031 C 30.6875 29.683594 30.675781 27.804688 30.679688 25.667969 C 30.679688 21.964844 30.679688 21.609375 30.566406 21.714844 Z M 30.546875 21.710938 "/>
</g>
</svg>
