<svg width="21" height="22" viewBox="0 0 21 22" fill="none" xmlns="http://www.w3.org/2000/svg">
<path d="M2.24487 7.01758H19.1199L20.8074 21.3613H0.557373L2.24487 7.01758ZM5.61987 12.9238H7.30737V9.54883H5.61987V12.9238ZM14.0574 12.9238H15.7449V9.54883H14.0574V12.9238ZM7.30737 5.33008H5.61987C5.61987 3.98742 6.15324 2.69975 7.10264 1.75035C8.05205 0.800947 9.33972 0.267578 10.6824 0.267578C12.025 0.267578 13.3127 0.800947 14.2621 1.75035C15.2115 2.69975 15.7449 3.98742 15.7449 5.33008H14.0574C14.0574 4.43497 13.7018 3.57653 13.0689 2.94359C12.4359 2.31066 11.5775 1.95508 10.6824 1.95508C9.78727 1.95508 8.92882 2.31066 8.29589 2.94359C7.66295 3.57653 7.30737 4.43497 7.30737 5.33008Z" fill="#002586"/>
</svg>
