<svg width="24" height="25" viewBox="0 0 24 25" fill="none" xmlns="http://www.w3.org/2000/svg">
<path d="M21 2.02734H6C5.46957 2.02734 4.96086 2.23806 4.58579 2.61313C4.21071 2.9882 4 3.49691 4 4.02734V7.02734H2V9.02734H4V11.0273H2V13.0273H4V15.0273H2V17.0273H4V20.0273C4 20.5578 4.21071 21.0665 4.58579 21.4416C4.96086 21.8166 5.46957 22.0273 6 22.0273H21C21.2652 22.0273 21.5196 21.922 21.7071 21.7345C21.8946 21.5469 22 21.2926 22 21.0273V3.02734C22 2.76213 21.8946 2.50777 21.7071 2.32024C21.5196 2.1327 21.2652 2.02734 21 2.02734ZM13 5.02634C14.648 5.02634 16 6.37734 16 8.02634C15.9976 8.82136 15.6808 9.58314 15.1188 10.1454C14.5567 10.7077 13.795 11.0247 13 11.0273C11.353 11.0273 10 9.67434 10 8.02634C10 6.37734 11.353 5.02634 13 5.02634ZM19 18.0273H7V17.2773C7 15.0583 9.705 12.7773 13 12.7773C16.295 12.7773 19 15.0583 19 17.2773V18.0273Z" fill="#042B96"/>
</svg>
