<svg width="17" height="17" viewBox="0 0 17 17" fill="none" xmlns="http://www.w3.org/2000/svg">
<path fill-rule="evenodd" clip-rule="evenodd" d="M5.23258 0.0273438C5.05577 0.0273438 4.8862 0.0975818 4.76118 0.222606C4.63616 0.34763 4.56592 0.517199 4.56592 0.69401V2.69401H5.89925V1.36068H15.2326V10.694H13.8993V12.0273H15.8993C16.0761 12.0273 16.2456 11.9571 16.3707 11.8321C16.4957 11.7071 16.5659 11.5375 16.5659 11.3607V0.69401C16.5659 0.517199 16.4957 0.34763 16.3707 0.222606C16.2456 0.0975818 16.0761 0.0273438 15.8993 0.0273438H5.23258ZM1.23258 4.02734C1.05577 4.02734 0.886205 4.09758 0.76118 4.22261C0.636156 4.34763 0.565918 4.5172 0.565918 4.69401V15.3607C0.565918 15.5375 0.636156 15.7071 0.76118 15.8321C0.886205 15.9571 1.05577 16.0273 1.23258 16.0273H11.8993C12.0761 16.0273 12.2456 15.9571 12.3707 15.8321C12.4957 15.7071 12.5659 15.5375 12.5659 15.3607V4.69401C12.5659 4.5172 12.4957 4.34763 12.3707 4.22261C12.2456 4.09758 12.0761 4.02734 11.8993 4.02734H1.23258ZM3.23258 9.36068H9.89925V8.02734H3.23258V9.36068ZM3.23258 12.0273H9.89925V10.694H3.23258V12.0273Z" fill="#002586"/>
</svg>
