<svg width="36" height="36" viewBox="0 0 36 36" fill="none" xmlns="http://www.w3.org/2000/svg">
<path d="M18.4059 35.0273H18.2796C10.1178 35.0065 4.64849 33.3129 3.51256 32.2674C2.31351 31.2012 0.73584 25.6815 0.73584 17.5274C0.73584 9.39413 2.31351 3.85351 3.51256 2.7872C4.64849 1.7418 10.1388 0.0482517 18.2796 0.0273438H18.4059C26.5678 0.0482517 32.037 1.7418 33.1729 2.7872C34.372 3.85351 35.9496 9.39413 35.9496 17.5274C35.9496 25.6605 34.372 31.2012 33.1729 32.2674C32.037 33.3339 26.5678 35.0273 18.4059 35.0273Z" fill="#0357EE"/>
<path d="M27.888 17.6602L27.1775 9.03223H22.8927C22.8927 9.03223 19.6291 15.6742 19.3405 16.579H19.2961L15.8549 9.03223H11.5479L10.8375 16.5127L10.238 24.1036H12.8578C13.99 24.1036 14.434 23.6182 14.5229 22.4266C14.5229 22.4266 14.9669 15.4756 14.9003 14.4606H14.9447L15.0779 14.9239C15.2555 15.5419 17.6976 21.4777 17.6976 21.4777H20.9167C20.9167 21.4777 23.359 15.6301 23.6697 14.4606H23.7141L24.0916 22.4266C24.1804 23.6182 24.6466 24.1036 25.7566 24.1036H28.3763L27.888 17.6602Z" fill="white"/>
</svg>
