<svg width="36" height="36" viewBox="0 0 36 36" fill="none" xmlns="http://www.w3.org/2000/svg">
<g clip-path="url(#clip0_1040_2761)">
<path d="M0.716309 0.0996094H35.7163V35.0996H0.716309V0.0996094Z" fill="#FFC403"/>
<path d="M16.2743 15.5342V19.5293H15.1817V17.2884L14.4518 18.3683H13.8798L13.0774 17.2884V19.5293H12.0786V15.5342H13.0859L14.2384 17.1006L15.2713 15.5342H16.2743ZM16.5902 16.4391V15.5342H20.3207V16.4391H19.0146V19.5293H17.9006V16.4391H16.5902ZM24.4311 15.5342V19.5293H23.5134L21.6353 17.2458V19.5293H20.6365V15.5342H21.6311L23.428 17.7366V15.5342H24.4311Z" fill="black"/>
<path d="M18.2163 23.7034C14.9894 23.7034 11.9461 23.1016 9.6498 22.0046C7.24675 20.8565 5.92358 19.2943 5.92358 17.5998C5.92358 15.9052 7.24675 14.343 9.6498 13.1949C11.9461 12.0979 14.9894 11.4961 18.2163 11.4961C21.4431 11.4961 24.4864 12.0979 26.7827 13.1949C29.1858 14.343 30.5089 15.9052 30.5089 17.5998C30.5089 19.2943 29.1858 20.8565 26.7827 22.0046C24.4864 23.1016 21.4431 23.7034 18.2163 23.7034ZM18.2163 12.3967C15.1175 12.3967 12.215 12.9687 10.0382 14.0101C7.9681 15.0004 6.82419 16.2766 6.82419 17.604C6.82419 18.9315 7.96383 20.2077 10.0382 21.1937C12.215 22.2351 15.1218 22.8071 18.2163 22.8071C21.3108 22.8071 24.2175 22.2351 26.3943 21.1937C28.4644 20.2077 29.6083 18.9272 29.6083 17.604C29.6083 16.2808 28.4687 15.0004 26.3943 14.0144C24.2175 12.9687 21.315 12.3967 18.2163 12.3967Z" fill="black"/>
</g>
<defs>
<clipPath id="clip0_1040_2761">
<rect width="35" height="35" fill="white" transform="translate(0.716309 0.0996094)"/>
</clipPath>
</defs>
</svg>
