<svg width="21" height="21" viewBox="0 0 21 21" fill="none" xmlns="http://www.w3.org/2000/svg">
<path d="M10.3076 17.6807C11.4122 17.6807 12.3076 16.7852 12.3076 15.6807C12.3076 14.5761 11.4122 13.6807 10.3076 13.6807C9.20305 13.6807 8.30762 14.5761 8.30762 15.6807C8.30762 16.7852 9.20305 17.6807 10.3076 17.6807Z" fill="#0034BB"/>
<path d="M1.30762 8.08051C2.43372 6.69722 3.81863 5.58936 5.37036 4.83051C6.92209 4.07166 8.60511 3.6792 10.3076 3.6792C12.0101 3.6792 13.6931 4.07166 15.2449 4.83051C16.7966 5.58936 18.1815 6.69722 19.3076 8.08051L17.8076 9.48051C16.8692 8.29939 15.7151 7.35345 14.422 6.70551C13.1289 6.05757 11.7264 5.72247 10.3076 5.72247C8.88886 5.72247 7.48635 6.05757 6.19324 6.70551C4.90013 7.35345 3.74604 8.29939 2.80762 9.48051L1.30762 8.08051ZM5.00762 11.2805C5.66471 10.4684 6.4839 9.81562 7.40796 9.36786C8.33202 8.9201 9.33868 8.68812 10.3576 8.68812C11.3766 8.68812 12.3832 8.9201 13.3073 9.36786C14.2313 9.81562 15.0505 10.4684 15.7076 11.2805L14.3076 12.6805C13.8391 12.0615 13.2454 11.5619 12.5704 11.2186C11.8954 10.8754 11.1563 10.6971 10.4076 10.6971C9.65894 10.6971 8.91982 10.8754 8.24481 11.2186C7.56979 11.5619 6.97612 12.0615 6.50762 12.6805L5.00762 11.2805Z" fill="#0034BB"/>
</svg>
