<svg width="9" height="9" viewBox="0 0 9 9" fill="none" xmlns="http://www.w3.org/2000/svg">
<path d="M4.16611 6.02701H4.96594V3.62754H4.16611V6.02701ZM4.56602 2.82771C4.67933 2.82771 4.77438 2.78932 4.85116 2.71253C4.92794 2.63575 4.9662 2.54084 4.96594 2.4278C4.96567 2.31475 4.92728 2.21984 4.85076 2.14306C4.77424 2.06628 4.67933 2.02788 4.56602 2.02788C4.45271 2.02788 4.3578 2.06628 4.28128 2.14306C4.20477 2.21984 4.16638 2.31475 4.16611 2.4278C4.16584 2.54084 4.20423 2.63589 4.28128 2.71293C4.35833 2.78998 4.45325 2.82824 4.56602 2.82771ZM4.56602 8.02658C4.01281 8.02658 3.49292 7.92153 3.00636 7.71144C2.5198 7.50136 2.09656 7.21649 1.73664 6.85683C1.37672 6.49718 1.09185 6.07394 0.882026 5.58711C0.672205 5.10028 0.567162 4.58039 0.566895 4.02745C0.566628 3.4745 0.671672 2.95462 0.882026 2.46779C1.09238 1.98096 1.37725 1.55772 1.73664 1.19807C2.09603 0.83841 2.51927 0.553539 3.00636 0.343452C3.49346 0.133364 4.01334 0.0283203 4.56602 0.0283203C5.1187 0.0283203 5.63859 0.133364 6.12568 0.343452C6.61278 0.553539 7.03602 0.83841 7.39541 1.19807C7.75479 1.55772 8.0398 1.98096 8.25042 2.46779C8.46104 2.95462 8.56595 3.4745 8.56515 4.02745C8.56435 4.58039 8.45931 5.10028 8.25002 5.58711C8.04073 6.07394 7.75586 6.49718 7.39541 6.85683C7.03495 7.21649 6.61171 7.50149 6.12568 7.71184C5.63965 7.9222 5.11977 8.02711 4.56602 8.02658Z" fill="#1B1A46"/>
</svg>
