<svg width="37" height="36" viewBox="0 0 37 36" fill="none" xmlns="http://www.w3.org/2000/svg">
<path fill-rule="evenodd" clip-rule="evenodd" d="M9.98923 12.5358C10.1987 12.3147 10.3383 11.8959 10.92 11.128C12.2115 9.40605 14.2708 7.87027 17.0166 7.21872C23.1016 5.76437 28.0231 9.89472 29.4193 14.3625C31.339 20.4591 27.581 25.5784 23.2994 27.3236C20.6001 28.4173 17.4936 28.3125 14.934 27.1374C12.3511 25.9391 11.4203 24.6243 10.059 22.5766H2.63606C2.75241 24.031 4.55579 27.0211 5.19571 27.8588C15.7019 41.6925 36.9702 34.0485 36.8423 17.3293C36.7724 8.28912 29.9777 1.3897 21.752 0.202958C16.749 -0.506762 12.2464 1.01739 9.12825 3.28617C7.66227 4.34493 6.09158 5.88072 5.05609 7.35834C4.50925 8.12623 4.0555 8.92903 3.59011 9.85981C3.34578 10.3601 3.18289 10.7208 2.96183 11.3258C2.64769 12.1286 2.58952 12.4311 2.62442 12.5358H9.98923Z" fill="#1DCEA0"/>
<path fill-rule="evenodd" clip-rule="evenodd" d="M7.79024 20.4831L9.70998 20.4365L9.79142 14.6191H0.844291C0.66977 15.8175 0.681404 19.3312 0.832656 20.4831H7.79024Z" fill="#210E5F"/>
</svg>
