<svg width="21" height="21" viewBox="0 0 21 21" fill="none" xmlns="http://www.w3.org/2000/svg">
<path d="M1.72437 4.84717V16.5138H18.391V4.84717H1.72437ZM5.89103 14.8472C5.89103 14.1841 5.62764 13.5482 5.1588 13.0794C4.68996 12.6106 4.05407 12.3472 3.39103 12.3472V9.01383C4.05407 9.01383 4.68996 8.75044 5.1588 8.2816C5.62764 7.81276 5.89103 7.17688 5.89103 6.51383H14.2244C14.2244 7.17688 14.4878 7.81276 14.9566 8.2816C15.4254 8.75044 16.0613 9.01383 16.7244 9.01383V12.3472C16.0613 12.3472 15.4254 12.6106 14.9566 13.0794C14.4878 13.5482 14.2244 14.1841 14.2244 14.8472H5.89103ZM10.0577 8.1805C10.9744 8.1805 11.7244 9.26383 11.7244 10.6805C11.7244 12.0972 10.9744 13.1805 10.0577 13.1805C9.14103 13.1805 8.39103 12.0972 8.39103 10.6805C8.39103 9.26383 9.14103 8.1805 10.0577 8.1805Z" fill="#0034BB"/>
</svg>
