<svg width="21" height="21" viewBox="0 0 21 21" fill="none" xmlns="http://www.w3.org/2000/svg">
<rect x="1.43262" y="1.18066" width="19" height="19" rx="9.5" stroke="#000F35"/>
<path d="M10.1764 12.9289C10.5704 12.93 10.9607 12.8535 11.3251 12.7038C11.6895 12.554 12.0208 12.334 12.3002 12.0562C12.5795 11.7784 12.8014 11.4483 12.9532 11.0848C13.105 10.7212 13.1837 10.3313 13.1848 9.93735C13.1859 9.54338 13.1094 9.15306 12.9597 8.78866C12.8099 8.42426 12.5899 8.09292 12.3121 7.81357C12.0343 7.53421 11.7042 7.31231 11.3406 7.16052C10.9771 7.00874 10.5872 6.93005 10.1932 6.92894C9.39759 6.92671 8.63364 7.24064 8.06946 7.80167C7.50527 8.3627 7.18706 9.12487 7.18483 9.92052C7.1826 10.7162 7.49653 11.4801 8.05756 12.0443C8.61859 12.6085 9.38076 12.9267 10.1764 12.9289ZM13.3379 12.3908L15.1229 14.1858C15.1705 14.2321 15.2084 14.2874 15.2344 14.3485C15.2604 14.4096 15.2739 14.4752 15.2743 14.5416C15.2746 14.608 15.2617 14.6738 15.2364 14.7352C15.211 14.7965 15.1737 14.8522 15.1266 14.899C15.0795 14.9458 15.0235 14.9827 14.962 15.0076C14.9005 15.0326 14.8346 15.045 14.7682 15.0442C14.7018 15.0434 14.6362 15.0293 14.5753 15.0029C14.5144 14.9765 14.4594 14.9382 14.4134 14.8903L12.6284 13.0953C11.8229 13.717 10.8108 14.0083 9.79803 13.91C8.78528 13.8116 7.84807 13.3311 7.17719 12.566C6.5063 11.801 6.15218 10.8091 6.1869 9.79218C6.22162 8.77527 6.64258 7.8098 7.36409 7.09234C8.08559 6.37487 9.0534 5.95933 10.0705 5.93031C11.0876 5.90129 12.0775 6.26097 12.8388 6.93614C13.6 7.6113 14.0753 8.55119 14.168 9.56448C14.2606 10.5778 13.9636 11.5883 13.3374 12.3903L13.3379 12.3908Z" fill="#000F35"/>
</svg>
